<svg width="1000" height="auto" viewBox="0 0 1000 565" xmlns="http://www.w3.org/2000/svg">
<path d="M1000 536.255V532.724H910.712V34.6993C910.604 25.532 906.91 16.7708 900.422 10.288C893.934 3.80531 885.165 0.115336 875.989 0.00675642H125.972C121.433 -0.0849306 116.923 0.75741 112.723 2.48143C108.523 4.20545 104.723 6.77431 101.56 10.0282C98.396 13.2821 95.9361 17.1514 94.333 21.3957C92.7299 25.64 92.0179 30.1684 92.2412 34.6993V532.724H0.00297642V536.255C-0.0833601 541.203 1.71134 546.001 5.02524 549.68C8.33915 553.359 12.9258 555.645 17.8605 556.079H59.5281L69.449 565H100.687H131.925L141.845 556.079H864.058L872.987 565H932.512L943.425 556.079H979.166C984.229 556.192 989.155 554.433 993 551.141C996.845 547.848 999.337 543.253 1000 538.237V536.255ZM894.71 532.724H107.252V38.6959C107.252 25.3759 110.711 14.9979 126.024 14.9979L870.037 14.0384C885.35 14.0384 894.71 23.3935 894.71 38.6959V532.724Z">
</path>
</svg>